<svg width="45" height="49" viewBox="0 0 45 49" fill="none" xmlns="http://www.w3.org/2000/svg">
<path d="M37.7192 24.8493C37.5137 22.894 36.8353 20.5924 34.9648 18.7388C33.0942 16.8853 32.7859 14.5226 33.9781 12.3636C35.0881 10.3268 37.3903 9.20653 39.6103 9.59353C42.0359 10.0213 43.8859 11.7933 44.2353 14.1967C44.5026 15.9688 43.7831 17.4964 42.5909 18.7592C39.4048 22.12 39.3637 26.5195 42.5087 29.8802C44.3998 31.8967 44.8314 34.0557 43.7626 36.2351C42.7759 38.2312 40.5559 39.5144 38.4181 39.3107C35.8692 39.0663 34.0603 37.4776 33.3409 34.789C32.2926 30.8783 28.1403 28.4748 24.1731 29.4729C20.3909 30.4302 17.7598 28.9026 16.7114 25.1752C15.8481 22.1403 12.8676 19.8387 9.64034 19.7369C7.81089 19.6962 6.96811 20.2868 6.86533 22.0589C6.70089 24.9511 7.297 27.6397 9.39367 29.8395C12.1481 32.7318 11.552 36.9684 8.13977 38.72C5.79644 39.9218 2.91866 39.3107 1.25366 37.2943C-0.493564 35.176 -0.370228 32.4466 1.39755 30.2265C2.30199 29.0859 3.32977 27.9045 3.76144 26.5602C4.72755 23.6272 3.98756 20.959 1.72645 18.6981C-0.678554 16.2947 -0.534665 12.8321 1.932 10.7138C5.03589 8.04555 9.74311 9.43058 10.9353 13.3616C12.3948 18.1074 15.9509 20.1646 20.7609 19.0444C23.9059 18.3111 26.8248 20.0017 27.6059 23.1995C28.3664 26.2547 30.4426 27.8638 33.2587 28.7396C36.1981 29.6969 37.7398 28.4748 37.7192 24.8493Z" fill="url(#paint0_linear_26_2821)"/>
<path d="M22.097 48.8634C19.0342 48.8431 16.6086 46.4396 16.6086 43.4251C16.5881 40.4106 19.0753 37.9665 22.1175 37.9868C25.1186 38.0072 27.7086 40.5532 27.6675 43.4455C27.6264 46.3989 25.057 48.9042 22.097 48.8634Z" fill="url(#paint1_linear_26_2821)"/>
<path d="M22.1176 0.000127439C25.1187 0.0204956 27.6881 2.54615 27.647 5.43844C27.6059 8.33072 25.1187 10.836 22.2203 10.8564C19.1165 10.8971 16.5676 8.43256 16.5676 5.37733C16.5676 2.40357 19.0548 -0.0202408 22.1176 0.000127439Z" fill="url(#paint2_linear_26_2821)"/>
<defs>
<linearGradient id="paint0_linear_26_2821" x1="5.12767" y1="41.2462" x2="38.7911" y2="7.27313" gradientUnits="userSpaceOnUse">
<stop stop-color="#88085B"/>
<stop offset="1" stop-color="#DD660A"/>
</linearGradient>
<linearGradient id="paint1_linear_26_2821" x1="16.6022" y1="43.4295" x2="27.6606" y2="43.4295" gradientUnits="userSpaceOnUse">
<stop stop-color="#88085B"/>
<stop offset="1" stop-color="#DD660A"/>
</linearGradient>
<linearGradient id="paint2_linear_26_2821" x1="16.5743" y1="5.43118" x2="27.6426" y2="5.43118" gradientUnits="userSpaceOnUse">
<stop stop-color="#88085B"/>
<stop offset="1" stop-color="#DD660A"/>
</linearGradient>
</defs>
</svg>
